<?xml version="1.0" ?><!DOCTYPE svg  PUBLIC '-//W3C//DTD SVG 1.1//EN'  'http://www.w3.org/Graphics/SVG/1.1/DTD/svg11.dtd'><svg height="512px" style="enable-background:new 0 0 512 512;" version="1.1" viewBox="0 0 512 512" width="512px" xml:space="preserve" xmlns="http://www.w3.org/2000/svg" xmlns:xlink="http://www.w3.org/1999/xlink"><g id="comp_x5F_348-ubuntu"><g><g><g><path d="M256,26.001c-127.057,0-230,102.943-230,229.999c0,127.057,102.943,229.999,230,229.999      c127.056,0,229.999-102.942,229.999-229.999C485.999,128.944,383.057,26.001,256,26.001z" style="fill:#FFFFFF;"/><path d="M256,495.999c-64.122,0-124.395-24.96-169.717-70.282C40.961,380.395,16.001,320.121,16.001,256      s24.96-124.394,70.282-169.716C131.606,40.961,191.879,16.001,256,16.001c64.122,0,124.394,24.96,169.716,70.283      c45.322,45.322,70.282,105.595,70.282,169.716s-24.96,124.395-70.282,169.717S320.122,495.999,256,495.999z M256,36.001      c-121.308,0-220,98.691-220,219.999s98.691,219.999,220,219.999c121.307,0,219.999-98.691,219.999-219.999      S377.308,36.001,256,36.001z" style="fill:#E14715;"/></g><g><path d="M332.626,89.798c5.405-9.333,17.378-12.587,26.71-7.185c9.395,5.404,12.587,17.376,7.185,26.771      c-5.403,9.333-17.377,12.586-26.71,7.184C330.417,111.104,327.225,99.131,332.626,89.798z" style="fill:#FFFFFF;"/><path d="M349.524,129.182c-5.158,0-10.25-1.369-14.724-3.958c-14.129-8.22-18.979-26.354-10.83-40.434      C329.255,75.666,339.084,70,349.624,70c5.157,0,10.248,1.369,14.722,3.958c14.11,8.117,18.985,26.251,10.844,40.411      C369.895,123.516,360.065,129.182,349.524,129.182z M349.624,90c-3.429,0-6.627,1.843-8.345,4.809      c-2.636,4.555-1.04,10.439,3.56,13.115c1.435,0.83,3.018,1.257,4.686,1.257c3.429,0,6.625-1.842,8.342-4.807      c2.631-4.576,1.06-10.46-3.517-13.093C352.873,90.427,351.291,90,349.624,90z" style="fill:#E14715;"/></g><g><path d="M80.416,275.312c-10.806,0-19.584-8.781-19.584-19.585c0-10.806,8.778-19.586,19.584-19.586      c10.806,0,19.584,8.78,19.584,19.586C100,266.53,91.221,275.312,80.416,275.312z" style="fill:#FFFFFF;"/><path d="M80.416,285.312c-16.313,0-29.584-13.271-29.584-29.585c0-16.314,13.271-29.586,29.584-29.586      S110,239.413,110,255.727C110,272.04,96.729,285.312,80.416,285.312z M80.416,246.141c-5.285,0-9.584,4.3-9.584,9.586      c0,5.285,4.3,9.585,9.584,9.585s9.584-4.3,9.584-9.585C90,250.441,85.7,246.141,80.416,246.141z" style="fill:#E14715;"/></g><g><path d="M115.646,288.188c20.68-16.604,20.773-48.135,0-64.829c7.975-30.42,26.988-56.295,52.398-73.359      l21.98,36.726c-47.762,33.666-47.762,104.336,0,138.002l-21.98,36.725C142.633,344.48,123.713,318.514,115.646,288.188z" style="fill:#FFFFFF;"/><path d="M168.044,371.452c-1.961,0-3.896-0.577-5.554-1.685c-27.83-18.587-47.898-46.646-56.508-79.008      c-1.018-3.825,0.317-7.891,3.403-10.369c7.5-6.022,11.804-14.995,11.806-24.617c0.002-9.613-4.302-18.587-11.809-24.62      c-3.074-2.47-4.409-6.517-3.409-10.331c8.451-32.233,28.515-60.334,56.497-79.125c2.278-1.529,5.085-2.055,7.758-1.457      c2.677,0.599,4.99,2.27,6.398,4.623l21.98,36.726c2.688,4.491,1.458,10.294-2.819,13.309      c-20.071,14.148-31.583,36.319-31.583,60.828s11.511,46.68,31.583,60.827c4.278,3.016,5.507,8.818,2.819,13.31l-21.98,36.725      c-1.406,2.35-3.714,4.02-6.386,4.62C169.513,371.372,168.776,371.452,168.044,371.452z M126.984,291.328      c7.024,21.893,20.284,41.188,38.119,55.566l11.802-19.719c-20.894-17.916-32.702-43.48-32.702-71.449      c0-27.968,11.808-53.533,32.702-71.45l-11.792-19.702c-17.945,14.5-31.215,33.82-38.146,55.63      c9.112,9.539,14.226,22.174,14.223,35.573C141.188,269.174,136.08,281.8,126.984,291.328z" style="fill:#E14715;"/></g><g><path d="M359.346,426.595c-9.396,5.404-21.312,2.21-26.719-7.188c-5.403-9.397-2.21-21.374,7.188-26.779      c9.335-5.405,21.313-2.212,26.719,7.187C371.938,409.212,368.743,421.189,359.346,426.595z" style="fill:#FFFFFF;"/><path d="M349.564,439.222c-10.531,0-20.343-5.682-25.605-14.827      c-8.145-14.166-3.268-32.304,10.869-40.435c4.466-2.586,9.572-3.96,14.742-3.96c10.55,0,20.371,5.682,25.632,14.829      c8.145,14.163,3.269,32.302-10.87,40.434C359.828,437.854,354.722,439.222,349.564,439.222z M349.57,400      c-1.68,0-3.275,0.432-4.745,1.282c-4.604,2.648-6.176,8.536-3.529,13.141c1.729,3.004,4.82,4.799,8.269,4.799      c1.688,0,3.301-0.436,4.796-1.296c4.579-2.634,6.151-8.522,3.504-13.126C356.162,401.839,352.983,400,349.57,400z" style="fill:#E14715;"/></g><g><path d="M355.789,361.577c-24.761-9.552-52.027,6.12-56.108,32.458      c-4.823,1.3-45.351,13.264-89.681-8.717l20.867-37.375c52.863,24.577,114.442-10.851,119.544-69l42.753,0.649      C391.031,311.587,377.121,340.339,355.789,361.577L355.789,361.577z" style="fill:#FFFFFF;"/><path d="M266.389,408.447c-21.4,0.001-41.867-4.767-60.831-14.17c-2.452-1.216-4.299-3.384-5.109-5.998      c-0.811-2.614-0.514-5.446,0.82-7.836l20.867-37.375c2.552-4.57,8.199-6.397,12.947-4.193      c9.952,4.628,20.454,6.974,31.213,6.974c38.246,0,70.818-29.772,74.153-67.779c0.454-5.171,4.786-9.126,9.959-9.126      c0.052,0,0.103,0,0.155,0.001l42.753,0.649c2.74,0.042,5.344,1.207,7.202,3.223c1.857,2.017,2.806,4.706,2.623,7.441      c-2.223,33.351-16.534,64.747-40.297,88.406c-2.798,2.785-6.974,3.664-10.654,2.243c-3.7-1.427-7.544-2.15-11.427-2.15      c-15.672,0-28.794,11.274-31.201,26.81c-0.605,3.91-3.46,7.095-7.279,8.124l-0.379,0.104      C290.634,406.882,278.685,408.447,266.389,408.447z M224.081,380.611c13.407,5.205,27.595,7.837,42.308,7.836      c8.574,0,16.923-0.883,24.892-2.628c6.35-21.835,26.191-37.063,49.483-37.063c4.075,0,8.114,0.482,12.071,1.44      c15.484-17.043,25.604-38.167,29.175-60.772l-22.908-0.349c-3.834,20.438-14.265,38.936-29.945,52.82      c-17.444,15.445-39.769,23.952-62.86,23.952c-10.606,0-20.999-1.783-31.007-5.313L224.081,380.611z" style="fill:#E14715;"/></g><g><path d="M350.41,231.035c-5.009-57.499-66.125-93.854-119.542-68.998L210,124.662      c44.423-21.979,84.857-10.017,89.682-8.72c4.08,26.246,31.346,42.014,56.108,32.461c21.424,21.237,35.241,49.986,37.282,82.076      L350.41,231.035L350.41,231.035z" style="fill:#FFFFFF;"/><path d="M350.408,241.035c-5.178,0-9.51-3.959-9.96-9.132c-3.313-38.024-35.86-67.81-74.099-67.81      c-10.748,0-21.266,2.358-31.263,7.01c-4.747,2.21-10.396,0.381-12.95-4.191l-20.868-37.375c-1.335-2.391-1.631-5.225-0.819-7.84      s2.661-4.783,5.116-5.998c18.999-9.4,39.476-14.167,60.864-14.167c12.265,0,24.192,1.563,35.452,4.645l0.396,0.108      c3.821,1.027,6.678,4.211,7.285,8.121c2.415,15.534,15.556,26.809,31.245,26.809c3.869,0,7.699-0.721,11.383-2.142      c3.677-1.417,7.841-0.546,10.64,2.228c23.807,23.6,38.092,55.045,40.222,88.543c0.174,2.734-0.781,5.42-2.643,7.43      c-1.862,2.01-4.467,3.168-7.207,3.204l-42.662,0.556C350.496,241.035,350.452,241.035,350.408,241.035z M266.35,144.093      c23.124,0,45.484,8.58,62.961,24.16c15.607,13.914,25.985,32.358,29.796,52.668l22.844-0.297      c-3.508-22.692-13.604-43.843-29.102-60.845c-3.947,0.955-7.976,1.437-12.041,1.437c-23.306,0-43.163-15.225-49.523-37.056      c-7.963-1.745-16.299-2.627-24.854-2.627c-14.711,0-28.911,2.634-42.345,7.842l11.203,20.064      C245.33,145.888,255.742,144.093,266.35,144.093z" style="fill:#E14715;"/></g></g></g></g><g id="Layer_1"/></svg>